HIERARCHY
ROOT Hips
{
	OFFSET 0.000000 0.000000 0.000000 
	CHANNELS 6 Xposition Yposition Zposition Zrotation Yrotation Xrotation
	JOINT LeftUpLeg
	{
		OFFSET 1.363060 -1.794630 0.839290 
		CHANNELS 3 Zrotation Yrotation Xrotation
		JOINT LeftLeg
		{
			OFFSET 2.448110 -6.726130 0.000000 
			CHANNELS 3 Zrotation Yrotation Xrotation
			JOINT LeftFoot
			{
				OFFSET 2.562200 -7.039590 0.000000 
				CHANNELS 3 Zrotation Yrotation Xrotation
				JOINT LeftToeBase
				{
					OFFSET 0.157640 -0.433110 2.322550 
					CHANNELS 3 Zrotation Yrotation Xrotation
					End Site
					{
						OFFSET 0.000000 0.000000 0.000000 
					}
				}
			}
		}
	}
	JOINT RightUpLeg
	{
		OFFSET -1.305520 -1.794630 0.839290 
		CHANNELS 3 Zrotation Yrotation Xrotation
		JOINT RightLeg
		{
			OFFSET -2.542530 -6.985550 0.000000 
			CHANNELS 3 Zrotation Yrotation Xrotation
			JOINT RightFoot
			{
				OFFSET -2.568260 -7.056230 0.000000 
				CHANNELS 3 Zrotation Yrotation Xrotation
				JOINT RightToeBase
				{
					OFFSET -0.164730 -0.452590 2.363150 
					CHANNELS 3 Zrotation Yrotation Xrotation
					End Site
					{
						OFFSET 0.000000 0.000000 0.000000 
					}
				}
			}
		}
	}
	JOINT Spine
	{
		OFFSET 0.028270 2.035590 -0.193380 
		CHANNELS 3 Zrotation Yrotation Xrotation
		JOINT Spine1
		{
			OFFSET 0.056720 2.048850 -0.042750 
			CHANNELS 3 Zrotation Yrotation Xrotation
			JOINT Neck1
			{
				OFFSET -0.054170 1.746240 0.172020 
				CHANNELS 3 Zrotation Yrotation Xrotation
				JOINT Head
				{
					OFFSET 0.104070 1.761360 -0.123970 
					CHANNELS 3 Zrotation Yrotation Xrotation
					End Site
					{
						OFFSET 0.000000 0.000000 0.000000 
					}
				}
			}
			JOINT LeftArm
			{
				OFFSET 3.362410 1.200890 -0.311210 
				CHANNELS 3 Zrotation Yrotation Xrotation
				JOINT LeftForeArm
				{
					OFFSET 4.983000 -0.000000 -0.000000 
					CHANNELS 3 Zrotation Yrotation Xrotation
					JOINT LeftHand
					{
						OFFSET 3.483560 -0.000000 -0.000000 
						CHANNELS 3 Zrotation Yrotation Xrotation
						JOINT LeftHandIndex1
						{
							OFFSET 0.715260 -0.000000 -0.000000 
							CHANNELS 3 Zrotation Yrotation Xrotation
							End Site
							{
								OFFSET 0.000000 0.000000 0.000000 
							}
						}
					}
				}
			}
			JOINT RightArm
			{
				OFFSET -3.136600 1.374050 -0.404650 
				CHANNELS 3 Zrotation Yrotation Xrotation
				JOINT RightForeArm
				{
					OFFSET -5.241900 -0.000000 -0.000000 
					CHANNELS 3 Zrotation Yrotation Xrotation
					JOINT RightHand
					{
						OFFSET -3.444170 -0.000000 -0.000000 
						CHANNELS 3 Zrotation Yrotation Xrotation
						JOINT RightHandIndex1
						{
							OFFSET -0.622530 -0.000000 -0.000000 
							CHANNELS 3 Zrotation Yrotation Xrotation
							End Site
							{
								OFFSET 0.000000 0.000000 0.000000 
							}
						}
					}
				}
			}
		}
	}
}
MOTION
Frames: 9
Frame Time: 0.041667
15.796073 18.825906 19.848541 -179.026709 -2.999950 -149.227377 -59.518244 -29.371150 -17.418243 6.203770 4.738571 14.719500 -3.865237 -21.210163 -42.192662 0.803300 -5.720200 -15.974800 66.187746 29.899330 -14.683670 -6.009593 -4.255882 12.394111 -2.118614 12.221465 -48.336098 -1.341200 7.332600 -20.704500 12.158853 -1.112160 -2.785456 -4.483725 -1.855148 20.979676 18.060709 -7.723372 22.901717 1.580700 -1.885800 4.765400 -111.231404 -5.527308 18.236963 20.507573 -19.242365 -2.456569 0.733585 -0.142185 2.968693 -7.125000 0.000000 0.000000 105.755306 -1.717611 2.508376 -26.236011 34.450307 -5.472807 -0.197718 -4.330158 -3.816549 7.125000 0.000000 0.000000 
15.796264 18.825715 19.847106 -179.018252 -2.983398 -149.207046 -59.497784 -29.350345 -17.452132 6.207091 4.742575 14.730988 -3.891559 -21.242082 -42.168966 0.802200 -5.716500 -15.964200 66.176666 29.907299 -14.708655 -6.011094 -4.301015 12.427805 -2.049781 12.035138 -47.812860 -1.426700 7.553000 -21.364300 12.173426 -1.139710 -2.684137 -4.523799 -1.865011 20.923351 18.251793 -7.912817 23.372729 1.598200 -1.920500 4.832300 -111.237621 -5.539397 18.161473 20.505188 -19.246867 -2.454164 0.731274 -0.133490 2.882667 -7.125000 0.000000 0.000000 105.726823 -1.770571 2.648861 -26.294653 34.511574 -5.499816 -0.188552 -4.320576 -3.936924 7.125000 0.000000 0.000000 
15.796169 18.824376 19.845384 -178.975804 -2.965628 -149.161460 -59.450724 -29.412156 -17.501839 6.186788 4.698614 14.701790 -3.873944 -21.466192 -42.603893 1.516600 -7.776700 -22.037900 66.206534 29.944297 -14.755040 -5.996256 -4.233707 12.362242 -2.095775 12.400100 -48.515360 -1.192100 6.928200 -19.502800 12.320412 -1.167974 -2.606046 -4.586823 -1.874663 20.923098 18.355379 -8.023518 23.565773 1.605500 -1.949100 4.860500 -111.253936 -5.578718 17.972242 20.505886 -19.268190 -2.451888 0.730346 -0.139582 3.050225 -7.125000 0.000000 0.000000 105.706862 -1.742250 2.731347 -26.296983 34.516533 -5.500576 -0.194678 -4.323082 -3.962322 7.125000 0.000000 0.000000 
15.795499 18.823515 19.843758 -178.939612 -2.961249 -149.202561 -59.472166 -29.327982 -17.465754 6.211272 4.742529 14.741256 -3.926532 -21.299816 -42.154579 0.753700 -5.544800 -15.469200 66.212086 29.858856 -14.749641 -6.000021 -4.257876 12.441763 -2.066174 12.406940 -48.423101 -1.378600 7.429900 -20.995500 12.642328 -1.181875 -2.521645 -4.641570 -1.877247 20.912930 18.355300 -7.886117 23.261982 1.618900 -1.908000 4.826600 -111.292476 -5.606191 17.874338 20.503296 -19.296551 -2.452576 0.729426 -0.147491 3.205978 -7.125000 0.000000 0.000000 105.664001 -1.741868 2.804170 -26.279963 34.496068 -5.491190 -0.198376 -4.328262 -3.996419 7.125000 0.000000 0.000000 
15.794447 18.823898 19.841080 -178.960023 -2.960896 -149.333422 -59.525411 -29.222654 -17.362421 6.221214 4.747521 14.750714 -3.982867 -21.308859 -41.955107 0.570200 -4.835900 -13.441000 66.189971 29.810181 -14.700610 -6.007173 -4.301363 12.551223 -2.053764 12.309195 -48.254242 -1.529600 7.808600 -22.134200 12.584463 -1.251775 -1.951876 -4.553044 -1.878120 20.804251 17.963713 -7.469162 22.598335 1.577700 -1.782300 4.774200 -111.302926 -5.694387 17.844412 20.504557 -19.330257 -2.453074 0.726002 -0.148685 3.284951 -7.125000 0.000000 0.000000 105.653415 -1.667790 2.832716 -26.241855 34.486704 -5.477260 -0.193630 -4.336475 -4.008158 7.125000 0.000000 0.000000 
15.793012 18.823611 19.836680 -178.976722 -2.925379 -149.425900 -59.585219 -29.144479 -17.234528 6.223693 4.725304 14.687508 -3.940374 -21.255057 -41.976056 0.610900 -5.002700 -13.916100 66.191725 29.805725 -14.630262 -6.008472 -4.300578 12.570103 -2.058079 12.321017 -48.275092 -1.521300 7.788300 -22.072900 12.440721 -1.304516 -1.540384 -4.490466 -1.880607 20.691309 17.643269 -7.274792 22.411426 1.527900 -1.718500 4.779600 -111.332313 -5.677929 17.759471 20.537747 -19.401254 -2.465182 0.722870 -0.148931 3.318231 -7.125000 0.000000 0.000000 105.676346 -1.574493 2.681919 -26.165714 34.438237 -5.446523 -0.196805 -4.346739 -3.839326 7.125000 0.000000 0.000000 
15.792342 18.823324 19.833236 -178.912838 -2.849720 -149.401413 -59.593860 -29.079199 -17.164624 6.234316 4.718759 14.609486 -3.765687 -20.958112 -42.067084 0.604700 -4.977600 -13.844800 66.221555 29.894027 -14.625993 -5.995101 -4.303213 12.582506 -2.069701 12.308700 -48.283238 -1.524400 7.796000 -22.096100 12.650960 -1.236356 -1.833201 -4.560050 -1.865903 20.711095 17.561014 -7.410734 22.607380 1.501000 -1.777500 4.796600 -111.395061 -5.547025 17.674895 20.580877 -19.472480 -2.483399 0.721761 -0.146839 3.307627 -7.125000 0.000000 0.000000 105.678840 -1.573154 2.527305 -26.113950 34.377147 -5.421603 -0.202422 -4.352024 -3.697482 7.125000 0.000000 0.000000 
15.791960 18.823802 19.831706 -178.860938 -2.809884 -149.316005 -59.527857 -29.107973 -17.248921 6.232355 4.739198 14.635419 -3.607026 -20.753118 -42.304029 0.890000 -6.013300 -16.822900 66.260363 29.897784 -14.666054 -5.984200 -4.269708 12.540628 -2.037461 12.520239 -48.447909 -1.365900 7.396900 -20.896800 12.659490 -1.173970 -2.197378 -4.570317 -1.861668 20.733282 17.202851 -7.708004 23.405224 1.417200 -1.891600 4.877400 -111.376675 -5.452976 17.716899 20.614793 -19.481696 -2.493138 0.721416 -0.141592 3.239934 -7.125000 0.000000 0.000000 105.696505 -1.593804 2.435523 -26.092331 34.349495 -5.413511 -0.202385 -4.350313 -3.655893 7.125000 0.000000 0.000000 
15.791386 18.823802 19.830749 -178.847607 -2.819133 -149.230035 -59.457280 -29.220558 -17.401756 6.201556 4.711430 14.678292 -3.646699 -21.104594 -42.783828 1.966300 -8.795500 -25.157600 66.253039 29.843891 -14.730329 -5.987779 -4.237152 12.481808 -1.966748 12.737995 -48.496993 -1.202800 6.958100 -19.591400 12.750021 -1.169361 -2.242904 -4.608079 -1.861683 20.784318 17.386409 -7.560088 23.004527 1.454800 -1.831200 4.843900 -111.349226 -5.420934 17.831867 20.658655 -19.556270 -2.511606 0.718119 -0.141417 3.115749 -7.125000 0.000000 0.000000 105.715440 -1.569288 2.394018 -26.088270 34.354787 -5.413640 -0.198325 -4.340072 -3.649500 7.125000 0.000000 0.000000 
